# xmcd CD database file
#
# Track frame offsets:
#	150
#	16155
#	36180
#	56957
#	77817
#	98468
#	121638
#	144274
#	167984
#	187888
#	209696
#	230496
#	245979
#	269979
#	288836
#
# Disc length: 4441 seconds
#
# Revision: 2
# Processed by: cddbd v1.4PL0 Copyright (c) Steve Scherf et al.
# Submitted via: CDex 1.40Beta8
#
DISCID=d811570f
DTITLE=Zé Maria - Zé Maria
DYEAR=2002
DGENRE=Electronic
TTITLE0=Alegria
TTITLE1=Jardim camburi
TTITLE2=Do limite ao longe
TTITLE3=Mariola
TTITLE4=Am
TTITLE5=Tá tudo esquematizado
TTITLE6=Aê fazin o telefon!
TTITLE7=Iá?
TTITLE8=Um som na sala
TTITLE9=Vermelha
TTITLE10=Há de estar
TTITLE11=Corrido
TTITLE12=Aço bio
TTITLE13=Db
TTITLE14=Prece muda
EXTD=YEAR: 2002 ID3G: 52
EXTT0=
EXTT1=
EXTT2=
EXTT3=
EXTT4=
EXTT5=
EXTT6=
EXTT7=
EXTT8=
EXTT9=
EXTT10=
EXTT11=
EXTT12=
EXTT13=
EXTT14=
PLAYORDER=
